<?xml version="1.0" encoding="UTF-8"?>
<svg xmlns="http://www.w3.org/2000/svg" viewBox="0 0 100 100" role="img" aria-label="Coffee">
  <title>Coffee</title>
  <rect x="8" y="8" width="84" height="84" fill="none"/>
  <g fill="#ffffff" stroke="#ffffff" stroke-width="1.35" stroke-linecap="round" opacity="0.95">
    <line x1="34" y1="28" x2="66" y2="28" />
    <line x1="34" y1="28" x2="30" y2="42" />
    <line x1="66" y1="28" x2="70" y2="42" />
    <line x1="30" y1="42" x2="28" y2="72" />
    <line x1="70" y1="42" x2="72" y2="72" />
    <line x1="28" y1="72" x2="38" y2="82" />
    <line x1="72" y1="72" x2="62" y2="82" />
    <line x1="38" y1="82" x2="62" y2="82" />
    <line x1="70" y1="42" x2="78" y2="48" />
    <line x1="78" y1="48" x2="82" y2="58" />
    <circle cx="34" cy="28" r="2.8" />
    <circle cx="66" cy="28" r="2.2" />
    <circle cx="30" cy="42" r="2.2" />
    <circle cx="70" cy="42" r="2.2" />
    <circle cx="28" cy="72" r="2.2" />
    <circle cx="72" cy="72" r="2.2" />
    <circle cx="38" cy="82" r="2.2" />
    <circle cx="62" cy="82" r="2.2" />
    <circle cx="78" cy="48" r="2.2" />
    <circle cx="82" cy="58" r="2.2" />
  </g>
</svg>
