<?xml version="1.0" encoding="UTF-8"?>
<svg xmlns="http://www.w3.org/2000/svg" viewBox="0 0 100 100" role="img" aria-label="Controller">
  <title>Controller</title>
  <rect x="8" y="8" width="84" height="84" fill="none"/>
  <g fill="#ffffff" stroke="#ffffff" stroke-width="1.35" stroke-linecap="round" opacity="0.95">
    <line x1="22" y1="44" x2="38" y2="36" />
    <line x1="38" y1="36" x2="62" y2="36" />
    <line x1="62" y1="36" x2="78" y2="44" />
    <line x1="78" y1="44" x2="78" y2="58" />
    <line x1="78" y1="58" x2="62" y2="66" />
    <line x1="62" y1="66" x2="38" y2="66" />
    <line x1="38" y1="66" x2="22" y2="58" />
    <line x1="22" y1="58" x2="22" y2="44" />
    <line x1="34" y1="50" x2="66" y2="50" />
    <line x1="66" y1="50" x2="50" y2="54" />
    <line x1="50" y1="54" x2="34" y2="50" />
    <circle cx="22" cy="44" r="2.8" />
    <circle cx="38" cy="36" r="2.2" />
    <circle cx="62" cy="36" r="2.2" />
    <circle cx="78" cy="44" r="2.2" />
    <circle cx="78" cy="58" r="2.2" />
    <circle cx="62" cy="66" r="2.2" />
    <circle cx="38" cy="66" r="2.2" />
    <circle cx="22" cy="58" r="2.2" />
    <circle cx="34" cy="50" r="2.2" />
    <circle cx="66" cy="50" r="2.2" />
    <circle cx="50" cy="54" r="2.2" />
  </g>
</svg>
