<?xml version="1.0" encoding="UTF-8"?>
<svg xmlns="http://www.w3.org/2000/svg" viewBox="0 0 100 100" role="img" aria-label="Crown">
  <title>Crown</title>
  <rect x="8" y="8" width="84" height="84" fill="none"/>
  <g fill="#ffffff" stroke="#ffffff" stroke-width="1.35" stroke-linecap="round" opacity="0.95">
    <line x1="18" y1="62" x2="28" y2="34" />
    <line x1="28" y1="34" x2="38" y2="52" />
    <line x1="38" y1="52" x2="50" y2="26" />
    <line x1="50" y1="26" x2="62" y2="52" />
    <line x1="62" y1="52" x2="72" y2="34" />
    <line x1="72" y1="34" x2="82" y2="62" />
    <line x1="82" y1="62" x2="50" y2="72" />
    <line x1="50" y1="72" x2="18" y2="62" />
    <line x1="38" y1="52" x2="50" y2="72" />
    <line x1="62" y1="52" x2="50" y2="72" />
    <circle cx="18" cy="62" r="2.8" />
    <circle cx="28" cy="34" r="2.2" />
    <circle cx="38" cy="52" r="2.2" />
    <circle cx="50" cy="26" r="2.2" />
    <circle cx="62" cy="52" r="2.2" />
    <circle cx="72" cy="34" r="2.2" />
    <circle cx="82" cy="62" r="2.2" />
    <circle cx="50" cy="72" r="2.2" />
  </g>
</svg>
