<?xml version="1.0" encoding="UTF-8"?>
<svg xmlns="http://www.w3.org/2000/svg" viewBox="0 0 100 100" role="img" aria-label="Five Star">
  <title>Five Star</title>
  <rect x="8" y="8" width="84" height="84" fill="none"/>
  <g fill="#ffffff" stroke="#ffffff" stroke-width="1.35" stroke-linecap="round" opacity="0.95">
    <line x1="50" y1="16" x2="58" y2="38" />
    <line x1="58" y1="38" x2="82" y2="38" />
    <line x1="82" y1="38" x2="64" y2="52" />
    <line x1="64" y1="52" x2="72" y2="76" />
    <line x1="72" y1="76" x2="50" y2="62" />
    <line x1="50" y1="62" x2="28" y2="76" />
    <line x1="28" y1="76" x2="36" y2="52" />
    <line x1="36" y1="52" x2="18" y2="38" />
    <line x1="18" y1="38" x2="42" y2="38" />
    <line x1="42" y1="38" x2="50" y2="16" />
    <circle cx="50" cy="16" r="2.8" />
    <circle cx="58" cy="38" r="2.2" />
    <circle cx="82" cy="38" r="2.2" />
    <circle cx="64" cy="52" r="2.2" />
    <circle cx="72" cy="76" r="2.2" />
    <circle cx="50" cy="62" r="2.2" />
    <circle cx="28" cy="76" r="2.2" />
    <circle cx="36" cy="52" r="2.2" />
    <circle cx="18" cy="38" r="2.2" />
    <circle cx="42" cy="38" r="2.2" />
  </g>
</svg>
