<?xml version="1.0" encoding="UTF-8"?>
<svg xmlns="http://www.w3.org/2000/svg" viewBox="0 0 100 100" role="img" aria-label="Heart">
  <title>Heart</title>
  <rect x="8" y="8" width="84" height="84" fill="none"/>
  <g fill="#ffffff" stroke="#ffffff" stroke-width="1.35" stroke-linecap="round" opacity="0.95">
    <line x1="50" y1="78" x2="28" y2="52" />
    <line x1="28" y1="52" x2="22" y2="34" />
    <line x1="22" y1="34" x2="34" y2="22" />
    <line x1="34" y1="22" x2="50" y2="30" />
    <line x1="50" y1="30" x2="66" y2="22" />
    <line x1="66" y1="22" x2="78" y2="34" />
    <line x1="78" y1="34" x2="72" y2="52" />
    <line x1="72" y1="52" x2="50" y2="78" />
    <circle cx="50" cy="78" r="2.8" />
    <circle cx="28" cy="52" r="2.2" />
    <circle cx="22" cy="34" r="2.2" />
    <circle cx="34" cy="22" r="2.2" />
    <circle cx="50" cy="30" r="2.2" />
    <circle cx="66" cy="22" r="2.2" />
    <circle cx="78" cy="34" r="2.2" />
    <circle cx="72" cy="52" r="2.2" />
  </g>
</svg>
