<?xml version="1.0" encoding="UTF-8"?>
<svg xmlns="http://www.w3.org/2000/svg" viewBox="0 0 100 100" role="img" aria-label="Rocket">
  <title>Rocket</title>
  <rect x="8" y="8" width="84" height="84" fill="none"/>
  <g fill="#ffffff" stroke="#ffffff" stroke-width="1.35" stroke-linecap="round" opacity="0.95">
    <line x1="50" y1="14" x2="42" y2="34" />
    <line x1="50" y1="14" x2="58" y2="34" />
    <line x1="42" y1="34" x2="38" y2="52" />
    <line x1="58" y1="34" x2="62" y2="52" />
    <line x1="38" y1="52" x2="50" y2="72" />
    <line x1="62" y1="52" x2="50" y2="72" />
    <line x1="50" y1="72" x2="50" y2="86" />
    <line x1="38" y1="52" x2="34" y2="58" />
    <line x1="62" y1="52" x2="66" y2="58" />
    <line x1="34" y1="58" x2="50" y2="86" />
    <line x1="66" y1="58" x2="50" y2="86" />
    <circle cx="50" cy="14" r="2.8" />
    <circle cx="42" cy="34" r="2.2" />
    <circle cx="58" cy="34" r="2.2" />
    <circle cx="38" cy="52" r="2.2" />
    <circle cx="62" cy="52" r="2.2" />
    <circle cx="50" cy="72" r="2.2" />
    <circle cx="34" cy="58" r="2.2" />
    <circle cx="66" cy="58" r="2.2" />
    <circle cx="50" cy="86" r="2.2" />
  </g>
</svg>
