<?xml version="1.0" encoding="UTF-8"?>
<svg xmlns="http://www.w3.org/2000/svg" viewBox="0 0 100 100" role="img" aria-label="Smiley">
  <title>Smiley</title>
  <rect x="8" y="8" width="84" height="84" fill="none"/>
  <g fill="#ffffff" stroke="#ffffff" stroke-width="1.35" stroke-linecap="round" opacity="0.95">
    <line x1="50" y1="18" x2="22" y2="34" />
    <line x1="50" y1="18" x2="78" y2="34" />
    <line x1="22" y1="34" x2="18" y2="50" />
    <line x1="78" y1="34" x2="82" y2="50" />
    <line x1="18" y1="50" x2="28" y2="68" />
    <line x1="82" y1="50" x2="72" y2="68" />
    <line x1="28" y1="68" x2="38" y2="78" />
    <line x1="72" y1="68" x2="62" y2="78" />
    <line x1="38" y1="78" x2="62" y2="78" />
    <circle cx="50" cy="18" r="2.8" />
    <circle cx="22" cy="34" r="2.2" />
    <circle cx="78" cy="34" r="2.2" />
    <circle cx="18" cy="50" r="2.2" />
    <circle cx="82" cy="50" r="2.2" />
    <circle cx="28" cy="68" r="2.2" />
    <circle cx="72" cy="68" r="2.2" />
    <circle cx="38" cy="78" r="2.2" />
    <circle cx="62" cy="78" r="2.2" />
  </g>
</svg>
