<?xml version="1.0" encoding="UTF-8"?>
<svg xmlns="http://www.w3.org/2000/svg" viewBox="0 0 100 100" role="img" aria-label="Sword">
  <title>Sword</title>
  <rect x="8" y="8" width="84" height="84" fill="none"/>
  <g fill="#ffffff" stroke="#ffffff" stroke-width="1.35" stroke-linecap="round" opacity="0.95">
    <line x1="50" y1="12" x2="50" y2="28" />
    <line x1="50" y1="28" x2="50" y2="44" />
    <line x1="50" y1="44" x2="50" y2="58" />
    <line x1="50" y1="58" x2="38" y2="70" />
    <line x1="50" y1="58" x2="62" y2="70" />
    <line x1="38" y1="70" x2="28" y2="82" />
    <line x1="62" y1="70" x2="72" y2="82" />
    <line x1="28" y1="82" x2="50" y2="88" />
    <line x1="72" y1="82" x2="50" y2="88" />
    <circle cx="50" cy="12" r="2.8" />
    <circle cx="50" cy="28" r="2.2" />
    <circle cx="50" cy="44" r="2.2" />
    <circle cx="50" cy="58" r="2.2" />
    <circle cx="38" cy="70" r="2.2" />
    <circle cx="62" cy="70" r="2.2" />
    <circle cx="28" cy="82" r="2.2" />
    <circle cx="72" cy="82" r="2.2" />
    <circle cx="50" cy="88" r="2.2" />
  </g>
</svg>
