<?xml version="1.0" encoding="UTF-8"?>
<svg xmlns="http://www.w3.org/2000/svg" viewBox="0 0 100 100" role="img" aria-label="Thumbs Up">
  <title>Thumbs Up</title>
  <rect x="8" y="8" width="84" height="84" fill="none"/>
  <g fill="#ffffff" stroke="#ffffff" stroke-width="1.35" stroke-linecap="round" opacity="0.95">
    <line x1="34" y1="72" x2="34" y2="52" />
    <line x1="34" y1="52" x2="42" y2="38" />
    <line x1="42" y1="38" x2="50" y2="28" />
    <line x1="50" y1="28" x2="58" y2="34" />
    <line x1="58" y1="34" x2="58" y2="48" />
    <line x1="58" y1="48" x2="66" y2="52" />
    <line x1="66" y1="52" x2="66" y2="68" />
    <line x1="66" y1="68" x2="50" y2="78" />
    <line x1="50" y1="78" x2="42" y2="78" />
    <line x1="42" y1="78" x2="34" y2="72" />
    <circle cx="34" cy="72" r="2.8" />
    <circle cx="34" cy="52" r="2.2" />
    <circle cx="42" cy="38" r="2.2" />
    <circle cx="50" cy="28" r="2.2" />
    <circle cx="58" cy="34" r="2.2" />
    <circle cx="58" cy="48" r="2.2" />
    <circle cx="66" cy="52" r="2.2" />
    <circle cx="66" cy="68" r="2.2" />
    <circle cx="50" cy="78" r="2.2" />
    <circle cx="42" cy="78" r="2.2" />
  </g>
</svg>
