<?xml version="1.0" encoding="UTF-8"?>
<svg xmlns="http://www.w3.org/2000/svg" viewBox="0 0 100 100" role="img" aria-label="Draco">
  <title>Draco</title>
  <rect x="8" y="8" width="84" height="84" fill="none"/>
  <g fill="#ffffff" stroke="#ffffff" stroke-width="1.35" stroke-linecap="round" opacity="0.95">
    <line x1="18" y1="72" x2="28" y2="58" />
    <line x1="28" y1="58" x2="38" y2="48" />
    <line x1="38" y1="48" x2="48" y2="42" />
    <line x1="48" y1="42" x2="58" y2="38" />
    <line x1="58" y1="38" x2="68" y2="34" />
    <line x1="68" y1="34" x2="78" y2="30" />
    <line x1="78" y1="30" x2="72" y2="48" />
    <line x1="72" y1="48" x2="60" y2="56" />
    <circle cx="18" cy="72" r="2.8" />
    <circle cx="28" cy="58" r="2.2" />
    <circle cx="38" cy="48" r="2.2" />
    <circle cx="48" cy="42" r="2.2" />
    <circle cx="58" cy="38" r="2.2" />
    <circle cx="68" cy="34" r="2.2" />
    <circle cx="78" cy="30" r="2.2" />
    <circle cx="72" cy="48" r="2.2" />
    <circle cx="60" cy="56" r="2.2" />
  </g>
</svg>
