<?xml version="1.0" encoding="UTF-8"?>
<svg xmlns="http://www.w3.org/2000/svg" viewBox="0 0 100 100" role="img" aria-label="Hercules">
  <title>Hercules</title>
  <rect x="8" y="8" width="84" height="84" fill="none"/>
  <g fill="#ffffff" stroke="#ffffff" stroke-width="1.35" stroke-linecap="round" opacity="0.95">
    <line x1="34" y1="28" x2="50" y2="24" />
    <line x1="50" y1="24" x2="66" y2="28" />
    <line x1="66" y1="28" x2="72" y2="44" />
    <line x1="72" y1="44" x2="58" y2="52" />
    <line x1="58" y1="52" x2="42" y2="52" />
    <line x1="42" y1="52" x2="28" y2="44" />
    <line x1="28" y1="44" x2="34" y2="28" />
    <line x1="58" y1="52" x2="50" y2="68" />
    <line x1="42" y1="52" x2="50" y2="68" />
    <circle cx="34" cy="28" r="2.8" />
    <circle cx="50" cy="24" r="2.2" />
    <circle cx="66" cy="28" r="2.2" />
    <circle cx="72" cy="44" r="2.2" />
    <circle cx="58" cy="52" r="2.2" />
    <circle cx="42" cy="52" r="2.2" />
    <circle cx="28" cy="44" r="2.2" />
    <circle cx="50" cy="68" r="2.2" />
  </g>
</svg>
