<?xml version="1.0" encoding="UTF-8"?>
<svg xmlns="http://www.w3.org/2000/svg" viewBox="0 0 100 100" role="img" aria-label="Leo">
  <title>Leo</title>
  <rect x="8" y="8" width="84" height="84" fill="none"/>
  <g fill="#ffffff" stroke="#ffffff" stroke-width="1.35" stroke-linecap="round" opacity="0.95">
    <line x1="24" y1="58" x2="34" y2="44" />
    <line x1="34" y1="44" x2="46" y2="36" />
    <line x1="46" y1="36" x2="58" y2="40" />
    <line x1="58" y1="40" x2="68" y2="52" />
    <line x1="46" y1="36" x2="56" y2="68" />
    <line x1="56" y1="68" x2="40" y2="72" />
    <line x1="40" y1="72" x2="30" y2="66" />
    <line x1="30" y1="66" x2="24" y2="58" />
    <circle cx="24" cy="58" r="2.8" />
    <circle cx="34" cy="44" r="2.2" />
    <circle cx="46" cy="36" r="2.2" />
    <circle cx="58" cy="40" r="2.2" />
    <circle cx="68" cy="52" r="2.2" />
    <circle cx="56" cy="68" r="2.2" />
    <circle cx="40" cy="72" r="2.2" />
    <circle cx="30" cy="66" r="2.2" />
  </g>
</svg>
