<?xml version="1.0" encoding="UTF-8"?>
<svg xmlns="http://www.w3.org/2000/svg" viewBox="0 0 100 100" role="img" aria-label="Pegasus">
  <title>Pegasus</title>
  <rect x="8" y="8" width="84" height="84" fill="none"/>
  <g fill="#ffffff" stroke="#ffffff" stroke-width="1.35" stroke-linecap="round" opacity="0.95">
    <line x1="24" y1="38" x2="44" y2="38" />
    <line x1="44" y1="38" x2="44" y2="58" />
    <line x1="44" y1="58" x2="24" y2="58" />
    <line x1="24" y1="58" x2="24" y2="38" />
    <line x1="44" y1="38" x2="64" y2="38" />
    <line x1="64" y1="38" x2="74" y2="48" />
    <line x1="74" y1="48" x2="84" y2="58" />
    <line x1="84" y1="58" x2="64" y2="68" />
    <line x1="64" y1="68" x2="44" y2="58" />
    <circle cx="24" cy="38" r="2.8" />
    <circle cx="44" cy="38" r="2.2" />
    <circle cx="44" cy="58" r="2.2" />
    <circle cx="24" cy="58" r="2.2" />
    <circle cx="64" cy="38" r="2.2" />
    <circle cx="74" cy="48" r="2.2" />
    <circle cx="84" cy="58" r="2.2" />
    <circle cx="64" cy="68" r="2.2" />
  </g>
</svg>
