<?xml version="1.0" encoding="UTF-8"?>
<svg xmlns="http://www.w3.org/2000/svg" viewBox="0 0 100 100" role="img" aria-label="Perseus">
  <title>Perseus</title>
  <rect x="8" y="8" width="84" height="84" fill="none"/>
  <g fill="#ffffff" stroke="#ffffff" stroke-width="1.35" stroke-linecap="round" opacity="0.95">
    <line x1="22" y1="34" x2="36" y2="28" />
    <line x1="36" y1="28" x2="50" y2="32" />
    <line x1="50" y1="32" x2="64" y2="38" />
    <line x1="36" y1="28" x2="42" y2="48" />
    <line x1="50" y1="32" x2="54" y2="56" />
    <line x1="42" y1="48" x2="54" y2="56" />
    <line x1="42" y1="48" x2="46" y2="68" />
    <line x1="54" y1="56" x2="58" y2="76" />
    <line x1="46" y1="68" x2="58" y2="76" />
    <circle cx="22" cy="34" r="2.8" />
    <circle cx="36" cy="28" r="2.2" />
    <circle cx="50" cy="32" r="2.2" />
    <circle cx="64" cy="38" r="2.2" />
    <circle cx="42" cy="48" r="2.2" />
    <circle cx="54" cy="56" r="2.2" />
    <circle cx="46" cy="68" r="2.2" />
    <circle cx="58" cy="76" r="2.2" />
  </g>
</svg>
