<?xml version="1.0" encoding="UTF-8"?>
<svg xmlns="http://www.w3.org/2000/svg" viewBox="0 0 100 100" role="img" aria-label="Sagittarius">
  <title>Sagittarius</title>
  <rect x="8" y="8" width="84" height="84" fill="none"/>
  <g fill="#ffffff" stroke="#ffffff" stroke-width="1.35" stroke-linecap="round" opacity="0.95">
    <line x1="28" y1="34" x2="42" y2="28" />
    <line x1="42" y1="28" x2="56" y2="34" />
    <line x1="56" y1="34" x2="70" y2="40" />
    <line x1="28" y1="34" x2="36" y2="50" />
    <line x1="42" y1="28" x2="50" y2="46" />
    <line x1="56" y1="34" x2="64" y2="52" />
    <line x1="36" y1="50" x2="50" y2="46" />
    <line x1="50" y1="46" x2="64" y2="52" />
    <line x1="36" y1="50" x2="44" y2="66" />
    <line x1="64" y1="52" x2="58" y2="72" />
    <line x1="44" y1="66" x2="58" y2="72" />
    <circle cx="28" cy="34" r="2.8" />
    <circle cx="42" cy="28" r="2.2" />
    <circle cx="56" cy="34" r="2.2" />
    <circle cx="70" cy="40" r="2.2" />
    <circle cx="36" cy="50" r="2.2" />
    <circle cx="50" cy="46" r="2.2" />
    <circle cx="64" cy="52" r="2.2" />
    <circle cx="44" cy="66" r="2.2" />
    <circle cx="58" cy="72" r="2.2" />
  </g>
</svg>
