<?xml version="1.0" encoding="UTF-8"?>
<svg xmlns="http://www.w3.org/2000/svg" viewBox="0 0 100 100" role="img" aria-label="Taurus">
  <title>Taurus</title>
  <rect x="8" y="8" width="84" height="84" fill="none"/>
  <g fill="#ffffff" stroke="#ffffff" stroke-width="1.35" stroke-linecap="round" opacity="0.95">
    <line x1="24" y1="34" x2="38" y2="28" />
    <line x1="38" y1="28" x2="50" y2="36" />
    <line x1="50" y1="36" x2="62" y2="30" />
    <line x1="62" y1="30" x2="74" y2="38" />
    <line x1="38" y1="28" x2="44" y2="52" />
    <line x1="50" y1="36" x2="56" y2="52" />
    <line x1="44" y1="52" x2="56" y2="52" />
    <line x1="56" y1="52" x2="50" y2="66" />
    <circle cx="24" cy="34" r="2.8" />
    <circle cx="38" cy="28" r="2.2" />
    <circle cx="50" cy="36" r="2.2" />
    <circle cx="62" cy="30" r="2.2" />
    <circle cx="74" cy="38" r="2.2" />
    <circle cx="44" cy="52" r="2.2" />
    <circle cx="56" cy="52" r="2.2" />
    <circle cx="50" cy="66" r="2.2" />
  </g>
</svg>
